<svg width="44" height="45" viewBox="0 0 44 45" fill="none" xmlns="http://www.w3.org/2000/svg">
<path fill-rule="evenodd" clip-rule="evenodd" d="M21.9406 45C9.82315 45 -7.62939e-06 34.9264 -7.62939e-06 22.5C-7.62939e-06 10.0736 9.82315 0 21.9406 0C34.0581 0 43.8813 10.0736 43.8813 22.5C43.8813 34.9264 34.0581 45 21.9406 45ZM15.5167 21.9393L25.0627 12.3934C25.6485 11.8076 26.5982 11.8076 27.184 12.3934C27.7698 12.9792 27.7698 13.9289 27.184 14.5147L18.6987 23L27.184 31.4853C27.7698 32.0711 27.7698 33.0208 27.184 33.6066C26.5982 34.1924 25.6485 34.1924 25.0627 33.6066L15.5167 24.0607C14.9309 23.4749 14.9309 22.5251 15.5167 21.9393Z" fill="white"/>
</svg>
