<svg width="44" height="45" viewBox="0 0 44 45" fill="none" xmlns="http://www.w3.org/2000/svg">
<path fill-rule="evenodd" clip-rule="evenodd" d="M22.0593 45C34.1768 45 43.9999 34.9264 43.9999 22.5C43.9999 10.0736 34.1768 0 22.0593 0C9.94181 0 0.118652 10.0736 0.118652 22.5C0.118652 34.9264 9.94181 45 22.0593 45ZM28.4834 21.9393L18.9375 12.3934C18.3517 11.8076 17.402 11.8076 16.8162 12.3934C16.2304 12.9792 16.2304 13.9289 16.8162 14.5147L25.3014 23L16.8162 31.4853C16.2304 32.0711 16.2304 33.0208 16.8162 33.6066C17.4019 34.1924 18.3517 34.1924 18.9375 33.6066L28.4834 24.0607C29.0692 23.4749 29.0692 22.5251 28.4834 21.9393Z" fill="white"/>
</svg>
