<svg width="72" height="72" viewBox="0 0 72 72" fill="none" xmlns="http://www.w3.org/2000/svg">
<path d="M0 57.0938V63C0 68.0625 12.0938 72 27 72C41.9062 72 54 68.0625 54 63V57.0938C48.0938 61.1719 37.5469 63 27 63C16.3125 63 5.76562 61.1719 0 57.0938ZM45 18C59.9062 18 72 14.0625 72 9C72 4.07812 59.9062 0 45 0C30.0938 0 18 4.07812 18 9C18 14.0625 30.0938 18 45 18ZM0 42.3281V49.5C0 54.5625 12.0938 58.5 27 58.5C41.9062 58.5 54 54.5625 54 49.5V42.3281C48.0938 47.1094 37.5469 49.5 27 49.5C16.3125 49.5 5.76562 47.1094 0 42.3281ZM58.5 43.875C66.5156 42.3281 72 39.375 72 36V30.0938C68.625 32.3438 63.8438 33.8906 58.5 34.875V43.875ZM27 22.5C12.0938 22.5 0 27.5625 0 33.75C0 40.0781 12.0938 45 27 45C41.9062 45 54 40.0781 54 33.75C54 27.5625 41.9062 22.5 27 22.5ZM57.7969 30.5156C66.2344 28.9688 72 26.0156 72 22.5V16.5938C66.9375 20.1094 58.3594 21.9375 49.3594 22.5C53.4375 24.4688 56.5312 27.1406 57.7969 30.5156Z" fill="#4C91F9"/>
</svg>
