<svg width="73" height="73" viewBox="0 0 73 73" fill="none" xmlns="http://www.w3.org/2000/svg">
<path d="M1.79297 20.9531L34.5586 35.7188C35.543 36.1406 36.5273 36.1406 37.5117 35.7188L70.2773 20.9531C72.668 19.8281 72.668 16.3125 70.2773 15.1875L37.5117 0.421875C37.0898 0.28125 36.5273 0 36.1055 0C35.543 0 34.9805 0.28125 34.5586 0.421875L1.79297 15.1875C-0.597656 16.3125 -0.597656 19.8281 1.79297 20.9531ZM70.2773 33.3281L62.1211 29.5312L39.3398 39.9375C38.3555 40.3594 37.2305 40.6406 36.1055 40.6406C34.8398 40.6406 33.7148 40.3594 32.7305 39.9375L9.94922 29.5312L1.79297 33.3281C-0.597656 34.3125 -0.597656 37.8281 1.79297 38.9531L34.5586 53.7188C35.543 54.1406 36.5273 54.1406 37.5117 53.7188L70.2773 38.9531C72.668 37.8281 72.668 34.3125 70.2773 33.3281ZM70.2773 51.3281L62.1211 47.5312L39.3398 57.9375C38.3555 58.3594 37.2305 58.6406 36.1055 58.6406C34.8398 58.6406 33.7148 58.3594 32.7305 57.9375L9.94922 47.5312L1.79297 51.3281C-0.597656 52.3125 -0.597656 55.8281 1.79297 56.9531L34.5586 71.7188C35.543 72.1406 36.5273 72.1406 37.5117 71.7188L70.2773 56.9531C72.668 55.8281 72.668 52.3125 70.2773 51.3281Z" fill="#4C91F9"/>
</svg>
