<svg width="68" height="73" viewBox="0 0 68 73" fill="none" xmlns="http://www.w3.org/2000/svg">
<path d="M63.5312 11.8125L36.5312 0.5625C35.8281 0.28125 34.7031 0.140625 34 0.140625C33.1562 0.140625 32.0312 0.28125 31.3281 0.5625L4.32812 11.8125C1.79688 12.9375 0.25 15.3281 0.25 18C0.25 45.9844 16.2812 65.25 31.3281 71.5781C33.0156 72.2812 34.8438 72.2812 36.5312 71.5781C48.625 66.5156 67.75 49.2188 67.75 18C67.75 15.3281 66.0625 12.9375 63.5312 11.8125ZM34 62.8594V9.28125L58.6094 19.5469C58.1875 40.7812 47.0781 56.25 34 62.8594Z" fill="#4C91F9"/>
</svg>
