<svg width="54" height="72" viewBox="0 0 54 72" fill="none" xmlns="http://www.w3.org/2000/svg">
<path d="M35.8594 22.5V2.25C35.8594 1.125 34.875 0 33.6094 0H29.1094C27.9844 0 26.8594 1.125 26.8594 2.25V22.9219C27.7031 22.7812 28.4062 22.5 29.1094 22.5H35.8594ZM53.8594 36C53.8594 31.0781 49.9219 27 44.8594 27H29.1094C27.9844 27 26.8594 28.125 26.8594 29.25V29.3906C26.8594 33.0469 29.9531 36 33.6094 36H38.5312C39.9375 36 40.3594 36.5625 40.3594 37.125V39.5156C40.3594 40.0781 39.9375 40.5 39.375 40.6406C33.0469 40.9219 30.2344 44.0156 25.875 50.7656L24.8906 52.1719C24.75 52.4531 24.3281 52.5938 24.0469 52.5938C23.7656 52.5938 23.4844 52.5938 23.3438 52.4531L21.5156 51.1875C21.2344 51.0469 20.9531 50.625 20.9531 50.2031C20.9531 50.0625 21.0938 49.7812 21.2344 49.6406L22.0781 48.2344C24.3281 45 26.2969 42.1875 28.6875 40.0781C26.2969 39.375 24.3281 37.5469 23.2031 35.2969C22.3594 35.7188 21.2344 36 20.25 36H15.75C13.9219 36 12.375 35.4375 11.25 34.3125C9.98438 35.4375 8.4375 36 6.75 36H2.25C1.40625 36 0.703125 35.8594 0 35.7188V46.5469C0 51.3281 1.82812 55.9688 5.20312 59.3438L8.85938 63V72H44.8594V63.1406L49.9219 58.0781C52.1719 55.8281 54 51.6094 54 48.5156L53.8594 36ZM49.3594 23.3438V6.75C49.3594 5.625 48.375 4.5 47.1094 4.5H42.6094C41.4844 4.5 40.3594 5.625 40.3594 6.75V22.5H44.8594C46.5469 22.5 47.9531 22.9219 49.3594 23.3438ZM2.25 31.5H6.75C7.875 31.5 9 30.5156 9 29.25V11.25C9 10.125 7.875 9 6.75 9H2.25C0.984375 9 0 10.125 0 11.25V29.25C0 30.5156 0.984375 31.5 2.25 31.5ZM15.6094 31.5H20.1094C21.375 31.5 22.3594 30.5156 22.3594 29.25V6.75C22.3594 5.625 21.375 4.5 20.1094 4.5H15.6094C14.4844 4.5 13.3594 5.625 13.3594 6.75V29.25C13.3594 30.5156 14.4844 31.5 15.6094 31.5Z" fill="#4C91F9"/>
</svg>
