<svg width="20" height="21" viewBox="0 0 20 21" fill="none" xmlns="http://www.w3.org/2000/svg">
<path d="M10 0.8125C4.64844 0.8125 0.3125 5.14844 0.3125 10.5C0.3125 15.8516 4.64844 20.1875 10 20.1875C15.3516 20.1875 19.6875 15.8516 19.6875 10.5C19.6875 5.14844 15.3516 0.8125 10 0.8125ZM12.2266 14.5234L8.75 11.9844C8.63281 11.9062 8.59375 11.7891 8.59375 11.6328V5.03125C8.59375 4.79688 8.78906 4.5625 9.0625 4.5625H10.9375C11.1719 4.5625 11.4062 4.79688 11.4062 5.03125V10.4219L13.8672 12.2188C14.0625 12.375 14.1406 12.6875 13.9844 12.8828L12.8516 14.4062C12.7344 14.6016 12.4219 14.6406 12.2266 14.5234Z" fill="white"/>
</svg>
