<svg width="138" height="135" viewBox="0 0 138 135" fill="none" xmlns="http://www.w3.org/2000/svg">
<path d="M137.706 104.6C137.316 103.45 134.833 101.755 130.258 99.5194C129.018 98.8149 127.252 97.8574 124.967 96.6428C122.68 95.4281 120.604 94.3088 118.743 93.2859C116.878 92.2633 115.131 91.2727 113.499 90.3152C113.238 90.1235 112.421 89.565 111.049 88.6361C109.676 87.7099 108.517 87.0225 107.568 86.5742C106.621 86.1285 105.689 85.9042 104.774 85.9042C103.468 85.9042 101.835 86.8156 99.8759 88.6361C97.9163 90.459 96.1187 92.439 94.486 94.5822C92.8529 96.7244 91.1209 98.7044 89.2931 100.526C87.4626 102.349 85.9586 103.259 84.7838 103.259C84.194 103.259 83.4587 103.098 82.5774 102.781C81.6965 102.462 81.0263 102.188 80.5663 101.967C80.1104 101.742 79.328 101.296 78.2164 100.623C77.1027 99.9513 76.4834 99.5836 76.3529 99.5194C67.4012 94.6604 59.7239 89.0992 53.3195 82.8371C46.9172 76.5714 41.2314 69.0621 36.2654 60.3045C36.2002 60.1766 35.8236 59.5691 35.138 58.483C34.4514 57.396 33.9938 56.63 33.7651 56.1813C33.5365 55.7343 33.2588 55.0788 32.9326 54.2161C32.6065 53.3533 32.4427 52.6347 32.4427 52.0588C32.4427 50.9089 33.3741 49.438 35.2366 47.6481C37.0986 45.8591 39.1248 44.1646 41.3131 42.5678C43.503 40.9709 45.5271 39.2126 47.3899 37.2957C49.252 35.3778 50.1831 33.7806 50.1831 32.5025C50.1831 31.6082 49.9544 30.6965 49.4975 29.7699C49.0402 28.8414 48.3378 27.7083 47.3899 26.3654C46.4417 25.0231 45.8701 24.2248 45.6737 23.9679C44.6946 22.3711 43.6829 20.6614 42.6362 18.8396C41.5894 17.0181 40.4469 14.9877 39.2048 12.7508C37.9638 10.5149 36.9843 8.78846 36.2648 7.57412C33.979 3.10064 32.2477 0.670636 31.0712 0.288471C30.6136 0.0967167 29.927 0 29.0131 0C27.2478 0 24.9449 0.319031 22.1027 0.959107C19.2594 1.59818 17.0221 2.26848 15.3883 2.97269C12.1211 4.3143 8.65817 8.21319 4.99853 14.668C1.66606 20.6752 0 26.6209 0 32.5008C0 34.2253 0.114321 35.903 0.342962 37.5345C0.571604 39.1642 0.980138 41.0022 1.56891 43.048C2.15665 45.0931 2.63075 46.6124 2.98916 47.6017C3.34792 48.5917 4.01771 50.3652 4.99819 52.9228C5.9773 55.4798 6.56607 57.045 6.76209 57.6203C9.04885 63.8847 11.7606 69.4772 14.8967 74.3993C20.0566 82.5806 27.0981 91.0356 36.0172 99.7609C44.9367 108.486 53.5784 115.373 61.9427 120.423C66.9738 123.49 72.6929 126.142 79.0959 128.381C79.6843 128.572 81.2845 129.146 83.8974 130.107C86.5113 131.066 88.325 131.721 89.3371 132.073C90.3495 132.425 91.9029 132.889 93.992 133.465C96.0854 134.041 97.9626 134.44 99.6287 134.666C101.296 134.886 103.011 135 104.774 135C110.785 135 116.864 133.369 123.006 130.11C129.604 126.531 133.588 123.143 134.961 119.945C135.682 118.348 136.366 116.159 137.019 113.378C137.675 110.598 138 108.345 138 106.619C138.002 105.721 137.903 105.051 137.706 104.6Z" fill="white"/>
</svg>
